<?xml version="1.0" standalone="no"?>
<!DOCTYPE svg PUBLIC "-//W3C//DTD SVG 20010904//EN"
 "http://www.w3.org/TR/2001/REC-SVG-20010904/DTD/svg10.dtd">
<svg version="1.0" xmlns="http://www.w3.org/2000/svg"
 width="1120.000000pt" height="1120.000000pt" viewBox="0 0 1120.000000 1120.000000"
 preserveAspectRatio="xMidYMid meet">
<metadata>
Created by potrace 1.16, written by Peter Selinger 2001-2019
</metadata>
<g transform="translate(0.000000,1120.000000) scale(0.100000,-0.100000)"
fill="#007bff" stroke="none">
<path d="M4826 8372 c-3 -5 -44 -12 -92 -16 -48 -3 -93 -11 -99 -16 -7 -6 -33
-13 -59 -16 -25 -4 -46 -11 -46 -15 0 -5 -7 -9 -16 -9 -15 0 -102 -38 -114
-50 -3 -3 -31 -18 -63 -35 -31 -16 -69 -40 -84 -52 -14 -13 -32 -23 -40 -23
-7 0 -13 -5 -13 -10 0 -6 -11 -15 -25 -20 -14 -5 -25 -14 -25 -20 0 -5 -6 -10
-13 -10 -7 0 -20 -8 -29 -17 -26 -28 -46 -43 -57 -43 -6 0 -14 -6 -18 -13 -4
-8 -24 -24 -43 -38 -19 -13 -37 -27 -40 -30 -3 -3 -25 -21 -50 -40 -149 -112
-460 -418 -460 -451 0 -5 -9 -17 -20 -28 -11 -11 -20 -27 -20 -35 0 -8 -4 -15
-10 -15 -5 0 -16 -15 -24 -32 -8 -18 -22 -44 -30 -58 -9 -14 -25 -47 -37 -75
-12 -27 -27 -63 -34 -80 -7 -16 -17 -48 -20 -70 -4 -22 -11 -44 -15 -50 -26
-34 -30 -247 -30 -1687 0 -1443 3 -1629 30 -1663 4 -5 10 -27 14 -48 4 -21 18
-59 32 -84 13 -25 24 -52 24 -59 0 -8 4 -14 8 -14 4 0 13 -12 19 -27 39 -89
147 -216 252 -294 37 -27 75 -56 86 -64 10 -8 25 -15 32 -15 7 0 13 -4 13 -8
0 -5 19 -16 43 -26 23 -10 61 -27 84 -37 23 -11 51 -19 62 -19 12 0 21 -4 21
-9 0 -5 26 -13 58 -17 31 -4 60 -12 64 -18 10 -16 3116 -16 3126 0 4 6 33 14
65 18 31 4 57 11 57 15 0 5 18 11 39 15 87 14 270 127 390 240 54 52 174 223
192 276 6 16 19 46 30 66 10 21 19 45 19 54 0 9 4 20 9 25 28 29 31 210 31
2020 0 1788 -3 1984 -29 2020 -4 6 -13 30 -20 54 -19 65 -85 186 -148 268 -55
72 -136 153 -154 153 -5 0 -9 4 -9 9 0 19 -224 151 -257 151 -7 0 -13 4 -13 9
0 5 -19 12 -42 16 -24 4 -48 12 -55 17 -6 5 -52 12 -103 15 -50 3 -93 10 -96
15 -7 11 -2241 11 -2248 0z m2396 -39 c346 -86 621 -337 722 -660 14 -45 30
-130 36 -190 8 -76 10 -647 8 -1913 -4 -1630 -6 -1811 -21 -1870 -50 -202
-140 -354 -295 -502 -173 -164 -367 -248 -612 -266 -58 -4 -757 -5 -1555 -2
l-1450 6 -80 22 c-166 47 -302 117 -423 222 -98 85 -172 181 -232 305 -91 187
-93 200 -100 750 -11 852 -11 2421 0 2557 15 181 47 297 125 453 72 144 129
226 247 350 125 132 362 330 614 511 184 133 372 212 579 243 33 5 575 8 1205
7 1133 -2 1146 -2 1232 -23z"/>
<path d="M4830 8119 c-128 -9 -206 -30 -325 -89 -162 -80 -316 -216 -379 -334
l-26 -49 0 -442 0 -442 -48 -44 c-27 -24 -76 -68 -110 -97 l-62 -53 0 480 c0
302 -4 481 -10 481 -16 0 -138 -120 -200 -197 -92 -115 -157 -240 -204 -398
-20 -69 -20 -84 -23 -1587 -4 -1702 -8 -1591 71 -1753 97 -199 263 -338 486
-407 l75 -23 1480 -3 c1062 -2 1502 0 1559 8 295 42 536 254 628 552 l23 73 3
1805 c2 1589 1 1815 -13 1893 -29 166 -100 302 -216 413 -111 106 -211 161
-354 194 -75 18 -143 19 -1170 22 -599 2 -1133 1 -1185 -3z m2341 -332 c56
-28 107 -84 129 -144 20 -54 20 -69 18 -1431 l-3 -1377 -28 -55 c-36 -70 -79
-115 -142 -148 l-50 -27 -1323 -3 -1322 -2 -48 24 c-54 28 -72 45 -101 103
-21 41 -21 47 -21 981 -1 551 3 949 8 963 13 31 39 55 85 74 30 12 86 15 304
15 147 0 295 4 327 10 172 28 324 177 356 349 5 29 10 166 10 303 0 225 2 252
19 286 22 43 56 77 91 91 16 6 312 9 840 8 765 -2 817 -3 851 -20z m-1959
-388 c3 -239 2 -257 -18 -299 -25 -54 -72 -103 -128 -133 -39 -21 -54 -22
-343 -25 -167 -2 -303 -1 -303 3 0 7 135 135 275 262 205 185 509 452 512 449
1 -1 4 -117 5 -257z m-1112 -1700 c0 -453 4 -862 9 -909 17 -186 145 -333 319
-370 31 -7 507 -10 1368 -8 l1320 3 65 33 c35 18 81 48 102 67 21 19 41 35 44
35 12 0 -6 -238 -20 -272 -19 -46 -80 -104 -126 -120 -29 -10 -346 -13 -1592
-13 l-1556 0 -48 30 c-36 22 -57 45 -77 84 l-28 54 2 986 3 986 27 50 c28 55
173 203 186 191 1 -2 2 -374 2 -827z m-130 -1746 c33 -17 133 -18 1605 -21
1406 -2 1578 -1 1642 13 40 9 78 13 84 9 24 -15 38 -69 28 -112 -14 -65 -48
-109 -104 -137 l-51 -25 -1595 2 -1595 3 -43 28 c-56 37 -85 100 -77 166 4 25
9 67 12 93 l6 47 26 -24 c15 -14 43 -33 62 -42z"/>
<path d="M5556 7319 c-3 -17 -6 -129 -6 -249 0 -175 3 -220 14 -229 9 -7 38
-11 73 -9 l58 3 3 83 c2 45 4 82 5 83 1 0 37 4 80 8 83 9 113 24 151 74 29 39
28 141 -2 189 -37 59 -96 78 -245 78 l-124 0 -7 -31z"/>
<path d="M6020 7100 c0 -298 -12 -276 146 -267 207 12 286 84 288 262 1 125
-43 198 -140 235 -44 16 -78 20 -174 20 l-120 0 0 -250z m239 124 c31 -22 51
-73 51 -132 0 -98 -36 -142 -115 -142 l-35 0 0 145 0 145 38 0 c21 0 48 -7 61
-16z"/>
<path d="M6529 7113 c-1 -131 0 -245 1 -253 3 -24 21 -30 75 -28 l50 3 3 97 3
97 82 3 82 3 3 52 3 52 -83 3 -83 3 0 45 0 45 93 3 c79 2 92 5 92 20 0 9 3 34
6 55 l7 37 -167 0 -166 0 -1 -237z"/>
<path d="M5072 6546 c-52 -28 -62 -61 -62 -199 0 -133 6 -159 44 -189 19 -16
74 -18 752 -18 725 0 732 0 758 21 31 24 36 78 9 100 -13 12 -144 15 -722 19
l-706 5 -3 67 -3 68 706 2 707 3 19 24 c25 30 24 66 -1 91 -20 20 -33 20 -747
20 -573 -1 -733 -3 -751 -14z"/>
<path d="M5092 5983 c-18 -8 -43 -30 -55 -47 -22 -31 -22 -36 -25 -435 -2
-295 0 -413 9 -433 25 -60 1 -58 792 -58 718 0 725 0 751 21 33 26 36 77 5
105 -20 18 -49 19 -725 22 l-704 3 0 64 0 65 393 0 c215 0 516 1 667 1 290 0
356 6 377 35 22 30 16 70 -13 93 -26 21 -34 21 -725 21 l-699 0 0 64 c0 49 4
65 16 70 9 3 325 6 703 6 678 0 688 0 709 20 31 29 29 73 -4 99 -26 21 -34 21
-720 21 l-693 0 -7 45 c-3 25 -3 56 0 70 l6 25 700 0 c687 0 700 0 720 20 25
25 26 61 1 91 l-19 24 -714 2 c-642 3 -716 1 -746 -14z"/>
</g>
</svg>
